<?xml version="1.0" encoding="utf-8"?>
<!-- Generator: Adobe Illustrator 26.0.0, SVG Export Plug-In . SVG Version: 6.00 Build 0)  -->
<svg version="1.1" id="Слой_1" xmlns="http://www.w3.org/2000/svg" xmlns:xlink="http://www.w3.org/1999/xlink" x="0px" y="0px"
	 viewBox="0 0 444.2 425" enable-background="new 0 0 444.2 425" xml:space="preserve">
<g>
	<path fill="none" stroke="#000000" stroke-width="40" stroke-miterlimit="10" d="M358.2,405H86c-36.4,0-66-29.5-66-66V121.7
		c0-36.4,29.5-66,66-66h272.2c36.4,0,66,29.5,66,66V339C424.2,375.5,394.6,405,358.2,405z"/>
	<path fill="none" stroke="#000000" stroke-width="40" stroke-miterlimit="10" d="M177.4,91.4h-3.9c-6.6,0-12-5.4-12-12V32
		c0-6.6,5.4-12,12-12h3.9c6.6,0,12,5.4,12,12v47.4C189.4,86,184.1,91.4,177.4,91.4z"/>
	<path fill="none" stroke="#000000" stroke-width="40" stroke-miterlimit="10" d="M271.9,91.4h-3.9c-6.6,0-12-5.4-12-12V32
		c0-6.6,5.4-12,12-12h3.9c6.6,0,12,5.4,12,12v47.4C283.9,86,278.5,91.4,271.9,91.4z"/>
	<path fill="none" stroke="#000000" stroke-width="40" stroke-miterlimit="10" d="M343.5,176.4h-13.3c-0.2,0-0.3-0.2-0.3-0.3v-23.5
		c0-0.2,0.2-0.3,0.3-0.3h13.3c0.2,0,0.3,0.2,0.3,0.3v23.5C343.9,176.3,343.7,176.4,343.5,176.4z"/>
	<path fill="none" stroke="#000000" stroke-width="40" stroke-miterlimit="10" d="M266.6,176.4h-13.3c-0.2,0-0.3-0.2-0.3-0.3v-23.5
		c0-0.2,0.2-0.3,0.3-0.3h13.3c0.2,0,0.3,0.2,0.3,0.3v23.5C267,176.3,266.8,176.4,266.6,176.4z"/>
	<path fill="none" stroke="#000000" stroke-width="40" stroke-miterlimit="10" d="M190.8,176.4h-13.3c-0.2,0-0.3-0.2-0.3-0.3v-23.5
		c0-0.2,0.2-0.3,0.3-0.3h13.3c0.2,0,0.3,0.2,0.3,0.3v23.5C191.2,176.3,191,176.4,190.8,176.4z"/>
	<path fill="none" stroke="#000000" stroke-width="40" stroke-miterlimit="10" d="M113.9,176.4h-13.3c-0.2,0-0.3-0.2-0.3-0.3v-23.5
		c0-0.2,0.2-0.3,0.3-0.3h13.3c0.2,0,0.3,0.2,0.3,0.3v23.5C114.3,176.3,114.1,176.4,113.9,176.4z"/>
	<path fill="none" stroke="#000000" stroke-width="40" stroke-miterlimit="10" d="M343.5,260.6h-13.3c-0.2,0-0.3-0.2-0.3-0.3v-23.5
		c0-0.2,0.2-0.3,0.3-0.3h13.3c0.2,0,0.3,0.2,0.3,0.3v23.5C343.9,260.4,343.7,260.6,343.5,260.6z"/>
	<path fill="none" stroke="#000000" stroke-width="40" stroke-miterlimit="10" d="M266.6,260.6h-13.3c-0.2,0-0.3-0.2-0.3-0.3v-23.5
		c0-0.2,0.2-0.3,0.3-0.3h13.3c0.2,0,0.3,0.2,0.3,0.3v23.5C267,260.4,266.8,260.6,266.6,260.6z"/>
	<path fill="none" stroke="#000000" stroke-width="40" stroke-miterlimit="10" d="M190.8,260.6h-13.3c-0.2,0-0.3-0.2-0.3-0.3v-23.5
		c0-0.2,0.2-0.3,0.3-0.3h13.3c0.2,0,0.3,0.2,0.3,0.3v23.5C191.2,260.4,191,260.6,190.8,260.6z"/>
	<path fill="none" stroke="#000000" stroke-width="40" stroke-miterlimit="10" d="M113.9,260.6h-13.3c-0.2,0-0.3-0.2-0.3-0.3v-23.5
		c0-0.2,0.2-0.3,0.3-0.3h13.3c0.2,0,0.3,0.2,0.3,0.3v23.5C114.3,260.4,114.1,260.6,113.9,260.6z"/>
	<path fill="none" stroke="#000000" stroke-width="40" stroke-miterlimit="10" d="M343.5,338.8h-13.3c-0.2,0-0.3-0.2-0.3-0.3v-23.5
		c0-0.2,0.2-0.3,0.3-0.3h13.3c0.2,0,0.3,0.2,0.3,0.3v23.5C343.9,338.7,343.7,338.8,343.5,338.8z"/>
	<path fill="none" stroke="#000000" stroke-width="40" stroke-miterlimit="10" d="M266.6,338.8h-13.3c-0.2,0-0.3-0.2-0.3-0.3v-23.5
		c0-0.2,0.2-0.3,0.3-0.3h13.3c0.2,0,0.3,0.2,0.3,0.3v23.5C267,338.7,266.8,338.8,266.6,338.8z"/>
	<path fill="none" stroke="#000000" stroke-width="40" stroke-miterlimit="10" d="M190.8,338.8h-13.3c-0.2,0-0.3-0.2-0.3-0.3v-23.5
		c0-0.2,0.2-0.3,0.3-0.3h13.3c0.2,0,0.3,0.2,0.3,0.3v23.5C191.2,338.7,191,338.8,190.8,338.8z"/>
	<path fill="none" stroke="#000000" stroke-width="40" stroke-miterlimit="10" d="M113.9,338.8h-13.3c-0.2,0-0.3-0.2-0.3-0.3v-23.5
		c0-0.2,0.2-0.3,0.3-0.3h13.3c0.2,0,0.3,0.2,0.3,0.3v23.5C114.3,338.7,114.1,338.8,113.9,338.8z"/>
</g>
</svg>
